%
M48
M72
T01C0.0360
T02C0.0400
%
T01
X18000Y19500
X19000Y19500
X18000Y20500
X19000Y20500
X18000Y21500
X19000Y21500
X18000Y22500
X19000Y22500
X18000Y23500
X19000Y23500
X18000Y24500
X19000Y24500
X18000Y25500
X19000Y25500
X18000Y26500
X19000Y26500
X18000Y27500
X19000Y27500
T02
X13000Y29000
X14000Y29000
X15000Y29000
X24000Y29000
X23000Y29000
X22000Y29000
X24000Y27500
X23000Y27500
X22000Y27500
X24000Y26000
X23000Y26000
X22000Y26000
X24000Y24500
X23000Y24500
X22000Y24500
X24000Y23000
X23000Y23000
X22000Y23000
X24000Y21500
X23000Y21500
X22000Y21500
X24000Y20000
X23000Y20000
X22000Y20000
X24000Y18500
X23000Y18500
X22000Y18500
X24000Y17000
X23000Y17000
X22000Y17000
X13000Y27500
X14000Y27500
X15000Y27500
X13000Y26000
X14000Y26000
X15000Y26000
X13000Y24500
X14000Y24500
X15000Y24500
X13000Y23000
X14000Y23000
X15000Y23000
X13000Y21500
X14000Y21500
X15000Y21500
X13000Y20000
X14000Y20000
X15000Y20000
X13000Y18500
X14000Y18500
X15000Y18500
X13000Y17000
X14000Y17000
X15000Y17000
X34500Y25000
X33500Y25000
X32500Y25000
X31500Y25000
X34500Y29000
X33500Y29000
X32500Y29000
X31500Y29000
X26500Y15000
X27500Y15000
X26500Y11000
X27500Y11000
X26500Y19000
X27500Y19000
X26500Y23000
X27500Y23000
X26500Y27000
X27500Y27000
X31500Y11000
X32500Y11000
X31500Y15000
X32500Y15000
X31500Y19000
X32500Y19000
X29500Y17000
X28500Y17000
X27500Y17000
X26500Y17000
X31500Y23000
X32500Y23000
X31500Y27000
X32500Y27000
X29500Y13000
X28500Y13000
X27500Y13000
X26500Y13000
X29500Y21000
X28500Y21000
X27500Y21000
X26500Y21000
X29500Y25000
X28500Y25000
X27500Y25000
X26500Y25000
X29500Y29000
X28500Y29000
X27500Y29000
X26500Y29000
X34500Y13000
X33500Y13000
X32500Y13000
X31500Y13000
X34500Y17000
X33500Y17000
X32500Y17000
X31500Y17000
X34500Y21000
X33500Y21000
X32500Y21000
X31500Y21000
X23000Y13000
X22000Y13000
X21000Y13000
M30
